<svg width="274" height="48" viewBox="0 0 274 48" fill="none" xmlns="http://www.w3.org/2000/svg">
<path d="M29.1312 7.30469H12.6496L1 18.9543V35.4359L12.6496 47.0855H29.1312L40.7857 35.4359V18.9543L29.1312 7.30469Z" stroke="#231F20" stroke-width="0.737319" stroke-miterlimit="10"/>
<path d="M21.7576 7.36841L7.48306 12.564L1.06348 26.3273L6.25912 40.6067L20.0273 47.0263L34.3018 41.8307L40.7214 28.0625L35.5258 13.788L21.7576 7.36841Z" stroke="#231F20" stroke-width="0.737319" stroke-miterlimit="10"/>
<path d="M37.3997 19.4954L13.1914 10.6843L4.38031 34.8926L28.5886 43.7037L37.3997 19.4954Z" stroke="#231F20" stroke-width="0.737319" stroke-miterlimit="10"/>
<path d="M4.38324 19.4963L13.1943 43.7046L37.4026 34.8935L28.5915 10.6852L4.38324 19.4963Z" stroke="#231F20" stroke-width="0.737319" stroke-miterlimit="10"/>
<path d="M72.1631 17.8599H67.4627C67.3286 17.089 67.0814 16.4062 66.7212 15.8113C66.3609 15.208 65.9126 14.6969 65.3764 14.278C64.8402 13.8591 64.2285 13.5449 63.5415 13.3354C62.8628 13.1176 62.1297 13.0086 61.3421 13.0086C59.9429 13.0086 58.7028 13.3605 57.622 14.0644C56.5411 14.7598 55.6949 15.782 55.0833 17.1309C54.4716 18.4715 54.1658 20.1095 54.1658 22.045C54.1658 24.014 54.4716 25.6729 55.0833 27.0219C55.7033 28.3625 56.5495 29.3763 57.622 30.0633C58.7028 30.742 59.9387 31.0813 61.3295 31.0813C62.1004 31.0813 62.8209 30.9808 63.4912 30.7797C64.1699 30.5702 64.7773 30.2644 65.3136 29.8622C65.8582 29.4601 66.3148 28.9657 66.6835 28.3792C67.0605 27.7927 67.3202 27.1224 67.4627 26.3684L72.1631 26.3935C71.9871 27.6168 71.6059 28.7646 71.0194 29.8371C70.4413 30.9096 69.683 31.8564 68.7446 32.6775C67.8062 33.4902 66.7086 34.127 65.4518 34.5878C64.195 35.0402 62.8 35.2665 61.2667 35.2665C59.0045 35.2665 56.9852 34.7428 55.2089 33.6955C53.4327 32.6481 52.0334 31.1358 51.0113 29.1584C49.9891 27.1811 49.478 24.8099 49.478 22.045C49.478 19.2717 49.9932 16.9005 51.0238 14.9315C52.0544 12.9542 53.4578 11.4418 55.2341 10.3945C57.0103 9.34719 59.0212 8.82352 61.2667 8.82352C62.6994 8.82352 64.0316 9.02461 65.2633 9.42678C66.4949 9.82896 67.5925 10.4197 68.5561 11.1989C69.5196 11.9697 70.3114 12.9165 70.9314 14.0392C71.5598 15.1536 71.9704 16.4271 72.1631 17.8599ZM76.2319 34.9146V15.6102H80.6433V18.8276H80.8444C81.1963 17.7132 81.7995 16.8544 82.6542 16.2512C83.5172 15.6395 84.5016 15.3337 85.6076 15.3337C85.859 15.3337 86.1397 15.3463 86.4497 15.3714C86.7681 15.3882 87.032 15.4175 87.2415 15.4594V19.6445C87.0487 19.5775 86.7429 19.5188 86.324 19.4686C85.9134 19.4099 85.5155 19.3806 85.13 19.3806C84.3006 19.3806 83.5549 19.5607 82.893 19.921C82.2394 20.2729 81.7241 20.7631 81.3471 21.3915C80.9701 22.0199 80.7815 22.7446 80.7815 23.5657V34.9146H76.2319ZM98.0153 35.2916C96.0799 35.2916 94.4083 34.8894 93.0007 34.0851C91.6015 33.2723 90.5248 32.1245 89.7708 30.6415C89.0167 29.1501 88.6396 27.3947 88.6396 25.3755C88.6396 23.3898 89.0167 21.647 89.7708 20.1472C90.5332 18.6391 91.5973 17.4661 92.963 16.6282C94.3287 15.782 95.9332 15.3588 97.7765 15.3588C98.9663 15.3588 100.089 15.5516 101.145 15.937C102.209 16.314 103.147 16.9005 103.96 17.6965C104.781 18.4925 105.426 19.5063 105.895 20.7379C106.365 21.9612 106.599 23.4191 106.599 25.1116V26.5066H90.7762V23.44H102.238C102.23 22.5687 102.041 21.7936 101.673 21.115C101.304 20.4279 100.789 19.8875 100.127 19.4937C99.4732 19.0999 98.7107 18.903 97.8394 18.903C96.9093 18.903 96.0924 19.1292 95.3886 19.5817C94.6848 20.0257 94.136 20.6122 93.7422 21.3412C93.3568 22.0617 93.1599 22.8535 93.1515 23.7165V26.3935C93.1515 27.5162 93.3568 28.4798 93.7674 29.2841C94.1779 30.0801 94.7518 30.6917 95.4892 31.119C96.2265 31.538 97.0895 31.7474 98.0782 31.7474C98.7401 31.7474 99.3391 31.6553 99.8754 31.4709C100.412 31.2782 100.877 30.9975 101.27 30.6289C101.664 30.2602 101.962 29.8036 102.163 29.259L106.411 29.7366C106.143 30.8593 105.631 31.8396 104.877 32.6775C104.132 33.5069 103.177 34.1521 102.012 34.6129C100.847 35.0654 99.5151 35.2916 98.0153 35.2916ZM116.003 35.3042C114.78 35.3042 113.678 35.0863 112.698 34.6506C111.726 34.2066 110.955 33.553 110.385 32.69C109.824 31.827 109.543 30.7629 109.543 29.4978C109.543 28.4086 109.744 27.5078 110.147 26.7957C110.549 26.0835 111.097 25.5137 111.793 25.0864C112.488 24.6591 113.272 24.3365 114.143 24.1187C115.023 23.8925 115.932 23.7291 116.87 23.6285C118.001 23.5112 118.919 23.4065 119.623 23.3143C120.327 23.2138 120.838 23.063 121.156 22.8619C121.483 22.6524 121.646 22.3299 121.646 21.8942V21.8188C121.646 20.872 121.365 20.1389 120.804 19.6194C120.243 19.0999 119.434 18.8402 118.379 18.8402C117.264 18.8402 116.38 19.0831 115.727 19.5691C115.082 20.0551 114.646 20.629 114.42 21.2909L110.172 20.6877C110.507 19.5146 111.06 18.5343 111.831 17.7468C112.601 16.9508 113.544 16.3559 114.658 15.9621C115.773 15.5599 117.004 15.3588 118.353 15.3588C119.283 15.3588 120.209 15.4678 121.131 15.6856C122.053 15.9035 122.895 16.2637 123.657 16.7665C124.419 17.2608 125.031 17.9353 125.492 18.7899C125.961 19.6445 126.196 20.7128 126.196 21.9947V34.9146H121.822V32.2627H121.671C121.395 32.7989 121.005 33.3017 120.502 33.7709C120.008 34.2317 119.384 34.6045 118.63 34.8894C117.884 35.1659 117.009 35.3042 116.003 35.3042ZM117.185 31.9611C118.098 31.9611 118.89 31.7809 119.56 31.4207C120.23 31.052 120.745 30.566 121.106 29.9628C121.474 29.3595 121.659 28.7018 121.659 27.9896V25.7148C121.516 25.8321 121.273 25.941 120.93 26.0416C120.595 26.1421 120.218 26.2301 119.799 26.3055C119.38 26.3809 118.965 26.448 118.554 26.5066C118.144 26.5653 117.788 26.6155 117.486 26.6574C116.808 26.7496 116.2 26.9004 115.664 27.1099C115.128 27.3193 114.704 27.6126 114.394 27.9896C114.084 28.3583 113.929 28.8359 113.929 29.4224C113.929 30.2602 114.235 30.8928 114.847 31.3201C115.459 31.7474 116.238 31.9611 117.185 31.9611ZM140.41 15.6102V19.1292H129.313V15.6102H140.41ZM132.052 10.9852H136.602V29.1082C136.602 29.7198 136.694 30.189 136.879 30.5158C137.071 30.8342 137.323 31.052 137.633 31.1693C137.943 31.2866 138.286 31.3453 138.663 31.3453C138.948 31.3453 139.208 31.3243 139.442 31.2824C139.685 31.2405 139.87 31.2028 139.995 31.1693L140.762 34.726C140.519 34.8098 140.171 34.902 139.719 35.0025C139.275 35.1031 138.73 35.1617 138.085 35.1785C136.946 35.212 135.919 35.0402 135.006 34.6632C134.093 34.2778 133.368 33.6829 132.832 32.8785C132.304 32.0742 132.044 31.0688 132.052 29.8622V10.9852ZM152.428 35.2916C150.543 35.2916 148.909 34.8768 147.527 34.0474C146.144 33.2179 145.072 32.0574 144.309 30.566C143.555 29.0747 143.178 27.3319 143.178 25.3378C143.178 23.3437 143.555 21.5967 144.309 20.097C145.072 18.5972 146.144 17.4326 147.527 16.6031C148.909 15.7736 150.543 15.3588 152.428 15.3588C154.313 15.3588 155.947 15.7736 157.33 16.6031C158.712 17.4326 159.78 18.5972 160.534 20.097C161.297 21.5967 161.678 23.3437 161.678 25.3378C161.678 27.3319 161.297 29.0747 160.534 30.566C159.78 32.0574 158.712 33.2179 157.33 34.0474C155.947 34.8768 154.313 35.2916 152.428 35.2916ZM152.453 31.6469C153.476 31.6469 154.33 31.3662 155.017 30.8048C155.704 30.2351 156.215 29.4726 156.55 28.5175C156.894 27.5623 157.066 26.4982 157.066 25.3252C157.066 24.1438 156.894 23.0756 156.55 22.1204C156.215 21.1569 155.704 20.3902 155.017 19.8205C154.33 19.2507 153.476 18.9658 152.453 18.9658C151.406 18.9658 150.535 19.2507 149.839 19.8205C149.152 20.3902 148.637 21.1569 148.293 22.1204C147.958 23.0756 147.791 24.1438 147.791 25.3252C147.791 26.4982 147.958 27.5623 148.293 28.5175C148.637 29.4726 149.152 30.2351 149.839 30.8048C150.535 31.3662 151.406 31.6469 152.453 31.6469ZM165.54 34.9146V15.6102H169.951V18.8276H170.152C170.504 17.7132 171.107 16.8544 171.962 16.2512C172.825 15.6395 173.809 15.3337 174.915 15.3337C175.167 15.3337 175.447 15.3463 175.757 15.3714C176.076 15.3882 176.34 15.4175 176.549 15.4594V19.6445C176.356 19.5775 176.051 19.5188 175.632 19.4686C175.221 19.4099 174.823 19.3806 174.438 19.3806C173.608 19.3806 172.863 19.5607 172.201 19.921C171.547 20.2729 171.032 20.7631 170.655 21.3915C170.278 22.0199 170.089 22.7446 170.089 23.5657V34.9146H165.54ZM194.829 20.7128L190.682 21.1652C190.565 20.7463 190.359 20.3525 190.066 19.9838C189.781 19.6152 189.396 19.3177 188.91 19.0915C188.424 18.8653 187.829 18.7522 187.125 18.7522C186.178 18.7522 185.382 18.9575 184.737 19.368C184.1 19.7786 183.786 20.3106 183.795 20.9641C183.786 21.5255 183.991 21.9821 184.41 22.3341C184.838 22.686 185.542 22.975 186.522 23.2012L189.815 23.905C191.641 24.2988 192.999 24.923 193.887 25.7777C194.783 26.6323 195.236 27.7508 195.244 29.1333C195.236 30.3482 194.88 31.4207 194.176 32.3507C193.48 33.2723 192.513 33.9929 191.273 34.5124C190.032 35.0319 188.608 35.2916 186.999 35.2916C184.637 35.2916 182.735 34.7973 181.294 33.8086C179.852 32.8115 178.994 31.4249 178.717 29.6486L183.154 29.2213C183.355 30.0927 183.782 30.7504 184.436 31.1944C185.089 31.6385 185.94 31.8605 186.987 31.8605C188.068 31.8605 188.935 31.6385 189.588 31.1944C190.25 30.7504 190.581 30.2016 190.581 29.548C190.581 28.9951 190.368 28.5384 189.94 28.1781C189.521 27.8179 188.868 27.5414 187.98 27.3487L184.687 26.6574C182.835 26.272 181.465 25.6227 180.577 24.7094C179.689 23.7877 179.249 22.6231 179.258 21.2155C179.249 20.0257 179.572 18.9952 180.225 18.1238C180.887 17.244 181.805 16.5654 182.978 16.0878C184.159 15.6018 185.521 15.3588 187.062 15.3588C189.324 15.3588 191.105 15.8406 192.404 16.8042C193.711 17.7677 194.519 19.0706 194.829 20.7128ZM199.197 34.9146V9.17543H203.859V20.0718H215.786V9.17543H220.462V34.9146H215.786V23.9804H203.859V34.9146H199.197ZM225.332 34.9146V15.6102H229.881V34.9146H225.332ZM227.619 12.8704C226.898 12.8704 226.278 12.6316 225.759 12.154C225.239 11.6681 224.98 11.0858 224.98 10.4071C224.98 9.72004 225.239 9.13772 225.759 8.66014C226.278 8.17418 226.898 7.9312 227.619 7.9312C228.348 7.9312 228.968 8.17418 229.479 8.66014C229.999 9.13772 230.258 9.72004 230.258 10.4071C230.258 11.0858 229.999 11.6681 229.479 12.154C228.968 12.6316 228.348 12.8704 227.619 12.8704ZM251.803 15.6102L244.928 34.9146H239.901L233.026 15.6102H237.878L242.314 29.9502H242.515L246.964 15.6102H251.803ZM262.841 35.2916C260.905 35.2916 259.234 34.8894 257.826 34.0851C256.427 33.2723 255.35 32.1245 254.596 30.6415C253.842 29.1501 253.465 27.3947 253.465 25.3755C253.465 23.3898 253.842 21.647 254.596 20.1472C255.358 18.6391 256.423 17.4661 257.788 16.6282C259.154 15.782 260.759 15.3588 262.602 15.3588C263.792 15.3588 264.914 15.5516 265.97 15.937C267.034 16.314 267.973 16.9005 268.785 17.6965C269.606 18.4925 270.251 19.5063 270.721 20.7379C271.19 21.9612 271.424 23.4191 271.424 25.1116V26.5066H255.601V23.44H267.063C267.055 22.5687 266.867 21.7936 266.498 21.115C266.129 20.4279 265.614 19.8875 264.952 19.4937C264.298 19.0999 263.536 18.903 262.665 18.903C261.735 18.903 260.918 19.1292 260.214 19.5817C259.51 20.0257 258.961 20.6122 258.568 21.3412C258.182 22.0617 257.985 22.8535 257.977 23.7165V26.3935C257.977 27.5162 258.182 28.4798 258.593 29.2841C259.003 30.0801 259.577 30.6917 260.314 31.119C261.052 31.538 261.915 31.7474 262.903 31.7474C263.565 31.7474 264.164 31.6553 264.701 31.4709C265.237 31.2782 265.702 30.9975 266.096 30.6289C266.489 30.2602 266.787 29.8036 266.988 29.259L271.236 29.7366C270.968 30.8593 270.457 31.8396 269.703 32.6775C268.957 33.5069 268.002 34.1521 266.837 34.6129C265.673 35.0654 264.34 35.2916 262.841 35.2916Z" fill="#231F20"/>
<path d="M48.6359 45.2715H47.819L50.1818 38.8367H50.9861L53.3489 45.2715H52.532L50.6091 39.8547H50.5588L48.6359 45.2715ZM48.9375 42.7579H52.2303V43.4491H48.9375V42.7579ZM58.6871 47.1818C58.3289 47.1818 58.021 47.1357 57.7634 47.0436C57.5057 46.9535 57.291 46.8341 57.1193 46.6854C56.9496 46.5388 56.8145 46.3817 56.7139 46.2141L57.3046 45.7993C57.3717 45.8873 57.4565 45.9879 57.5591 46.101C57.6618 46.2162 57.8021 46.3157 57.9802 46.3995C58.1603 46.4853 58.396 46.5283 58.6871 46.5283C59.0767 46.5283 59.3983 46.434 59.6517 46.2455C59.9052 46.057 60.0319 45.7616 60.0319 45.3595V44.3792H59.969C59.9146 44.4671 59.8371 44.5761 59.7365 44.7059C59.6381 44.8337 59.4957 44.9479 59.3092 45.0484C59.1249 45.1469 58.8756 45.1961 58.5614 45.1961C58.1718 45.1961 57.822 45.1039 57.512 44.9196C57.2041 44.7353 56.9601 44.4671 56.7799 44.1152C56.6019 43.7633 56.5129 43.336 56.5129 42.8333C56.5129 42.339 56.5998 41.9085 56.7736 41.542C56.9475 41.1733 57.1894 40.8884 57.4994 40.6873C57.8095 40.4841 58.1676 40.3826 58.574 40.3826C58.8882 40.3826 59.1375 40.4349 59.3218 40.5397C59.5082 40.6423 59.6507 40.7596 59.7491 40.8916C59.8496 41.0214 59.9272 41.1283 59.9816 41.212H60.057V40.4454H60.7734V45.4097C60.7734 45.8245 60.6791 46.1617 60.4906 46.4215C60.3042 46.6833 60.0528 46.8749 59.7365 46.9964C59.4223 47.12 59.0725 47.1818 58.6871 47.1818ZM58.662 44.53C58.9594 44.53 59.2108 44.4619 59.4161 44.3257C59.6213 44.1896 59.7774 43.9937 59.8842 43.7382C59.991 43.4826 60.0445 43.1768 60.0445 42.8207C60.0445 42.473 59.9921 42.1662 59.8874 41.9001C59.7826 41.6341 59.6276 41.4257 59.4223 41.2749C59.2171 41.1241 58.9636 41.0487 58.662 41.0487C58.3478 41.0487 58.0859 41.1283 57.8765 41.2874C57.6691 41.4466 57.5131 41.6603 57.4083 41.9284C57.3057 42.1965 57.2544 42.494 57.2544 42.8207C57.2544 43.1559 57.3067 43.4523 57.4115 43.7099C57.5183 43.9655 57.6754 44.1666 57.8828 44.3132C58.0922 44.4577 58.352 44.53 58.662 44.53ZM62.8722 38.8367V45.2715H62.1307V38.8367H62.8722ZM66.191 45.372C65.7553 45.372 65.373 45.2683 65.0441 45.061C64.7174 44.8536 64.4618 44.5635 64.2775 44.1906C64.0953 43.8178 64.0041 43.3821 64.0041 42.8836C64.0041 42.3809 64.0953 41.942 64.2775 41.5671C64.4618 41.1921 64.7174 40.901 65.0441 40.6936C65.373 40.4862 65.7553 40.3826 66.191 40.3826C66.6266 40.3826 67.0079 40.4862 67.3346 40.6936C67.6635 40.901 67.919 41.1921 68.1013 41.5671C68.2856 41.942 68.3778 42.3809 68.3778 42.8836C68.3778 43.3821 68.2856 43.8178 68.1013 44.1906C67.919 44.5635 67.6635 44.8536 67.3346 45.061C67.0079 45.2683 66.6266 45.372 66.191 45.372ZM66.191 44.7059C66.5219 44.7059 66.7942 44.6211 67.0079 44.4514C67.2215 44.2818 67.3797 44.0587 67.4823 43.7822C67.5849 43.5057 67.6363 43.2062 67.6363 42.8836C67.6363 42.561 67.5849 42.2604 67.4823 41.9818C67.3797 41.7032 67.2215 41.4781 67.0079 41.3063C66.7942 41.1345 66.5219 41.0487 66.191 41.0487C65.86 41.0487 65.5877 41.1345 65.374 41.3063C65.1604 41.4781 65.0022 41.7032 64.8996 41.9818C64.797 42.2604 64.7456 42.561 64.7456 42.8836C64.7456 43.2062 64.797 43.5057 64.8996 43.7822C65.0022 44.0587 65.1604 44.2818 65.374 44.4514C65.5877 44.6211 65.86 44.7059 66.191 44.7059ZM69.6102 45.2715V38.8367H70.3517V41.212H70.4146C70.469 41.1283 70.5444 41.0214 70.6408 40.8916C70.7392 40.7596 70.8796 40.6423 71.0618 40.5397C71.2461 40.4349 71.4954 40.3826 71.8096 40.3826C72.216 40.3826 72.5742 40.4841 72.8842 40.6873C73.1942 40.8905 73.4361 41.1785 73.61 41.5514C73.7838 41.9242 73.8707 42.3641 73.8707 42.871C73.8707 43.3821 73.7838 43.8251 73.61 44.2001C73.4361 44.5729 73.1952 44.862 72.8873 45.0673C72.5794 45.2704 72.2243 45.372 71.8222 45.372C71.5122 45.372 71.2639 45.3207 71.0775 45.2181C70.8911 45.1133 70.7476 44.995 70.6471 44.863C70.5465 44.729 70.469 44.618 70.4146 44.53H70.3266V45.2715H69.6102ZM70.3392 42.8584C70.3392 43.2229 70.3926 43.5444 70.4994 43.823C70.6062 44.0995 70.7623 44.3163 70.9676 44.4734C71.1728 44.6284 71.4242 44.7059 71.7216 44.7059C72.0316 44.7059 72.2903 44.6242 72.4977 44.4609C72.7072 44.2954 72.8643 44.0733 72.969 43.7948C73.0758 43.5141 73.1292 43.202 73.1292 42.8584C73.1292 42.5191 73.0769 42.2133 72.9721 41.941C72.8695 41.6666 72.7135 41.4498 72.504 41.2906C72.2966 41.1293 72.0358 41.0487 71.7216 41.0487C71.42 41.0487 71.1665 41.1251 70.9613 41.278C70.756 41.4288 70.601 41.6404 70.4963 41.9127C70.3915 42.1829 70.3392 42.4982 70.3392 42.8584ZM76.4252 45.3846C76.1194 45.3846 75.8418 45.327 75.5926 45.2118C75.3433 45.0945 75.1453 44.9259 74.9987 44.7059C74.8521 44.4839 74.7788 44.2158 74.7788 43.9016C74.7788 43.6251 74.8332 43.401 74.9422 43.2292C75.0511 43.0553 75.1967 42.9192 75.3789 42.8207C75.5611 42.7223 75.7622 42.649 75.9822 42.6008C76.2042 42.5505 76.4273 42.5107 76.6514 42.4814C76.9447 42.4437 77.1824 42.4154 77.3646 42.3966C77.549 42.3756 77.683 42.3411 77.7668 42.2929C77.8527 42.2447 77.8956 42.1609 77.8956 42.0415V42.0164C77.8956 41.7064 77.8108 41.4655 77.6411 41.2937C77.4736 41.122 77.2191 41.0361 76.8776 41.0361C76.5236 41.0361 76.2461 41.1136 76.045 41.2686C75.8439 41.4236 75.7025 41.5891 75.6208 41.765L74.917 41.5137C75.0427 41.2204 75.2103 40.9921 75.4197 40.8287C75.6313 40.6632 75.8617 40.548 76.111 40.4831C76.3623 40.4161 76.6095 40.3826 76.8525 40.3826C77.0075 40.3826 77.1855 40.4014 77.3866 40.4391C77.5898 40.4747 77.7857 40.5491 77.9742 40.6622C78.1648 40.7753 78.3229 40.946 78.4486 41.1743C78.5743 41.4027 78.6371 41.7085 78.6371 42.0918V45.2715H77.8956V44.618H77.8579C77.8077 44.7227 77.7239 44.8347 77.6066 44.9541C77.4893 45.0735 77.3332 45.1751 77.1384 45.2589C76.9436 45.3427 76.7059 45.3846 76.4252 45.3846ZM76.5383 44.7185C76.8315 44.7185 77.0787 44.6609 77.2798 44.5457C77.483 44.4305 77.6359 44.2818 77.7385 44.0995C77.8433 43.9173 77.8956 43.7256 77.8956 43.5245V42.8459C77.8642 42.8836 77.7951 42.9181 77.6883 42.9496C77.5835 42.9789 77.462 43.0051 77.3238 43.0281C77.1876 43.0491 77.0546 43.0679 76.9248 43.0847C76.797 43.0993 76.6933 43.1119 76.6137 43.1224C76.421 43.1475 76.2409 43.1883 76.0733 43.2449C75.9078 43.2994 75.7737 43.3821 75.6711 43.4931C75.5706 43.602 75.5203 43.7508 75.5203 43.9393C75.5203 44.1969 75.6156 44.3917 75.8062 44.5237C75.9989 44.6536 76.2429 44.7185 76.5383 44.7185ZM80.7321 38.8367V45.2715H79.9905V38.8367H80.7321ZM86.5392 45.372C86.0868 45.372 85.6972 45.2652 85.3704 45.0515C85.0436 44.8379 84.7923 44.5436 84.6163 44.1686C84.4404 43.7937 84.3524 43.3653 84.3524 42.8836C84.3524 42.3934 84.4425 41.9609 84.6226 41.5859C84.8048 41.2089 85.0583 40.9146 85.383 40.703C85.7097 40.4894 86.091 40.3826 86.5267 40.3826C86.866 40.3826 87.1718 40.4454 87.4441 40.5711C87.7164 40.6968 87.9395 40.8727 88.1134 41.0989C88.2872 41.3252 88.3951 41.5891 88.437 41.8907H87.6955C87.6389 41.6708 87.5132 41.476 87.3184 41.3063C87.1257 41.1345 86.866 41.0487 86.5392 41.0487C86.2502 41.0487 85.9967 41.1241 85.7789 41.2749C85.5631 41.4236 85.3945 41.6341 85.273 41.9064C85.1536 42.1766 85.0939 42.494 85.0939 42.8584C85.0939 43.2313 85.1526 43.556 85.2699 43.8325C85.3893 44.109 85.5568 44.3237 85.7726 44.4766C85.9904 44.6295 86.246 44.7059 86.5392 44.7059C86.7319 44.7059 86.9068 44.6724 87.0639 44.6054C87.221 44.5384 87.354 44.442 87.463 44.3163C87.5719 44.1906 87.6494 44.0398 87.6955 43.8639H88.437C88.3951 44.1487 88.2914 44.4053 88.1259 44.6337C87.9625 44.8599 87.7457 45.04 87.4755 45.1741C87.2074 45.306 86.8953 45.372 86.5392 45.372ZM91.4816 45.372C91.0459 45.372 90.6636 45.2683 90.3347 45.061C90.008 44.8536 89.7524 44.5635 89.5681 44.1906C89.3859 43.8178 89.2947 43.3821 89.2947 42.8836C89.2947 42.3809 89.3859 41.942 89.5681 41.5671C89.7524 41.1921 90.008 40.901 90.3347 40.6936C90.6636 40.4862 91.0459 40.3826 91.4816 40.3826C91.9173 40.3826 92.2985 40.4862 92.6252 40.6936C92.9541 40.901 93.2097 41.1921 93.3919 41.5671C93.5762 41.942 93.6684 42.3809 93.6684 42.8836C93.6684 43.3821 93.5762 43.8178 93.3919 44.1906C93.2097 44.5635 92.9541 44.8536 92.6252 45.061C92.2985 45.2683 91.9173 45.372 91.4816 45.372ZM91.4816 44.7059C91.8125 44.7059 92.0848 44.6211 92.2985 44.4514C92.5121 44.2818 92.6703 44.0587 92.7729 43.7822C92.8756 43.5057 92.9269 43.2062 92.9269 42.8836C92.9269 42.561 92.8756 42.2604 92.7729 41.9818C92.6703 41.7032 92.5121 41.4781 92.2985 41.3063C92.0848 41.1345 91.8125 41.0487 91.4816 41.0487C91.1506 41.0487 90.8783 41.1345 90.6646 41.3063C90.451 41.4781 90.2928 41.7032 90.1902 41.9818C90.0876 42.2604 90.0363 42.561 90.0363 42.8836C90.0363 43.2062 90.0876 43.5057 90.1902 43.7822C90.2928 44.0587 90.451 44.2818 90.6646 44.4514C90.8783 44.6211 91.1506 44.7059 91.4816 44.7059ZM94.8003 45.2715V40.4454H95.5167V41.1995H95.5795C95.68 40.9418 95.8424 40.7418 96.0665 40.5994C96.2906 40.4548 96.5598 40.3826 96.874 40.3826C97.1924 40.3826 97.4574 40.4548 97.6689 40.5994C97.8826 40.7418 98.0491 40.9418 98.1685 41.1995H98.2188C98.3423 40.9502 98.5277 40.7523 98.7749 40.6056C99.0221 40.4569 99.3185 40.3826 99.6641 40.3826C100.096 40.3826 100.449 40.5177 100.723 40.7879C100.997 41.056 101.135 41.4739 101.135 42.0415V45.2715H100.393V42.0415C100.393 41.6854 100.296 41.4309 100.101 41.278C99.906 41.1251 99.6766 41.0487 99.4127 41.0487C99.0734 41.0487 98.8105 41.1513 98.6241 41.3566C98.4377 41.5598 98.3444 41.8174 98.3444 42.1295V45.2715H97.5904V41.9661C97.5904 41.6917 97.5013 41.4707 97.3233 41.3032C97.1452 41.1335 96.9159 41.0487 96.6352 41.0487C96.4425 41.0487 96.2624 41.1 96.0948 41.2026C95.9293 41.3053 95.7952 41.4477 95.6926 41.6299C95.5921 41.8101 95.5418 42.0185 95.5418 42.2552V45.2715H94.8003ZM102.49 45.2715V40.4454H103.207V41.1995H103.269C103.37 40.9418 103.532 40.7418 103.757 40.5994C103.981 40.4548 104.25 40.3826 104.564 40.3826C104.882 40.3826 105.147 40.4548 105.359 40.5994C105.573 40.7418 105.739 40.9418 105.858 41.1995H105.909C106.032 40.9502 106.218 40.7523 106.465 40.6056C106.712 40.4569 107.008 40.3826 107.354 40.3826C107.786 40.3826 108.139 40.5177 108.413 40.7879C108.687 41.056 108.825 41.4739 108.825 42.0415V45.2715H108.083V42.0415C108.083 41.6854 107.986 41.4309 107.791 41.278C107.596 41.1251 107.367 41.0487 107.103 41.0487C106.763 41.0487 106.501 41.1513 106.314 41.3566C106.128 41.5598 106.034 41.8174 106.034 42.1295V45.2715H105.28V41.9661C105.28 41.6917 105.191 41.4707 105.013 41.3032C104.835 41.1335 104.606 41.0487 104.325 41.0487C104.132 41.0487 103.952 41.1 103.785 41.2026C103.619 41.3053 103.485 41.4477 103.383 41.6299C103.282 41.8101 103.232 42.0185 103.232 42.2552V45.2715H102.49ZM113.222 43.2983V40.4454H113.963V45.2715H113.222V44.4546H113.171C113.058 44.6996 112.882 44.9081 112.644 45.0798C112.405 45.2495 112.103 45.3343 111.739 45.3343C111.437 45.3343 111.169 45.2683 110.934 45.1364C110.7 45.0023 110.515 44.8012 110.381 44.5331C110.247 44.2629 110.18 43.9225 110.18 43.512V40.4454H110.922V43.4617C110.922 43.8136 111.02 44.0943 111.217 44.3038C111.416 44.5132 111.67 44.618 111.978 44.618C112.162 44.618 112.349 44.5708 112.54 44.4766C112.733 44.3823 112.894 44.2378 113.024 44.043C113.156 43.8482 113.222 43.5999 113.222 43.2983ZM116.063 42.3683V45.2715H115.321V40.4454H116.038V41.1995H116.101C116.214 40.9544 116.385 40.7575 116.616 40.6088C116.846 40.458 117.144 40.3826 117.508 40.3826C117.835 40.3826 118.121 40.4496 118.366 40.5836C118.611 40.7156 118.802 40.9167 118.938 41.1869C119.074 41.455 119.142 41.7944 119.142 42.2049V45.2715H118.401V42.2552C118.401 41.876 118.302 41.5807 118.105 41.3691C117.908 41.1555 117.638 41.0487 117.295 41.0487C117.058 41.0487 116.846 41.1 116.66 41.2026C116.476 41.3053 116.33 41.455 116.223 41.6519C116.116 41.8488 116.063 42.0876 116.063 42.3683ZM120.497 45.2715V40.4454H121.238V45.2715H120.497ZM120.874 39.6411C120.729 39.6411 120.605 39.5918 120.5 39.4934C120.397 39.3949 120.346 39.2766 120.346 39.1383C120.346 39.0001 120.397 38.8817 120.5 38.7833C120.605 38.6848 120.729 38.6356 120.874 38.6356C121.019 38.6356 121.142 38.6848 121.245 38.7833C121.35 38.8817 121.402 39.0001 121.402 39.1383C121.402 39.2766 121.35 39.3949 121.245 39.4934C121.142 39.5918 121.019 39.6411 120.874 39.6411ZM124.695 40.4454V41.0738H122.194V40.4454H124.695ZM122.923 39.2891H123.665V43.889C123.665 44.0985 123.695 44.2556 123.756 44.3603C123.819 44.4629 123.898 44.5321 123.995 44.5677C124.093 44.6012 124.197 44.618 124.306 44.618C124.388 44.618 124.455 44.6138 124.507 44.6054C124.559 44.5949 124.601 44.5865 124.633 44.5802L124.783 45.2463C124.733 45.2652 124.663 45.2841 124.573 45.3029C124.483 45.3239 124.369 45.3343 124.23 45.3343C124.021 45.3343 123.816 45.2893 123.615 45.1992C123.416 45.1091 123.25 44.9719 123.118 44.7876C122.988 44.6033 122.923 44.3708 122.923 44.0901V39.2891ZM126.288 47.0813C126.163 47.0813 126.051 47.0708 125.952 47.0498C125.854 47.031 125.786 47.0121 125.748 46.9933L125.937 46.3398C126.117 46.3858 126.276 46.4026 126.414 46.39C126.552 46.3775 126.675 46.3157 126.782 46.2047C126.891 46.0957 126.99 45.9187 127.08 45.6737L127.218 45.2966L125.434 40.4454H126.238L127.57 44.2912H127.621L128.953 40.4454H129.757L127.709 45.9753C127.616 46.2246 127.502 46.4309 127.366 46.5943C127.23 46.7597 127.072 46.8823 126.892 46.9619C126.714 47.0415 126.513 47.0813 126.288 47.0813ZM135.185 45.372C134.749 45.372 134.367 45.2683 134.038 45.061C133.711 44.8536 133.456 44.5635 133.272 44.1906C133.089 43.8178 132.998 43.3821 132.998 42.8836C132.998 42.3809 133.089 41.942 133.272 41.5671C133.456 41.1921 133.711 40.901 134.038 40.6936C134.367 40.4862 134.749 40.3826 135.185 40.3826C135.621 40.3826 136.002 40.4862 136.329 40.6936C136.658 40.901 136.913 41.1921 137.095 41.5671C137.28 41.942 137.372 42.3809 137.372 42.8836C137.372 43.3821 137.28 43.8178 137.095 44.1906C136.913 44.5635 136.658 44.8536 136.329 45.061C136.002 45.2683 135.621 45.372 135.185 45.372ZM135.185 44.7059C135.516 44.7059 135.788 44.6211 136.002 44.4514C136.216 44.2818 136.374 44.0587 136.476 43.7822C136.579 43.5057 136.63 43.2062 136.63 42.8836C136.63 42.561 136.579 42.2604 136.476 41.9818C136.374 41.7032 136.216 41.4781 136.002 41.3063C135.788 41.1345 135.516 41.0487 135.185 41.0487C134.854 41.0487 134.582 41.1345 134.368 41.3063C134.154 41.4781 133.996 41.7032 133.894 41.9818C133.791 42.2604 133.74 42.561 133.74 42.8836C133.74 43.2062 133.791 43.5057 133.894 43.7822C133.996 44.0587 134.154 44.2818 134.368 44.4514C134.582 44.6211 134.854 44.7059 135.185 44.7059ZM140.653 40.4454V41.0738H138.051V40.4454H140.653ZM138.83 45.2715V39.7793C138.83 39.5028 138.895 39.2724 139.025 39.0881C139.155 38.9037 139.324 38.7655 139.531 38.6733C139.738 38.5812 139.957 38.5351 140.188 38.5351C140.37 38.5351 140.519 38.5497 140.634 38.5791C140.749 38.6084 140.835 38.6356 140.892 38.6608L140.678 39.3017C140.64 39.2891 140.588 39.2734 140.521 39.2546C140.456 39.2357 140.37 39.2263 140.263 39.2263C140.018 39.2263 139.841 39.2881 139.732 39.4117C139.625 39.5353 139.572 39.7165 139.572 39.9552V45.2715H138.83ZM146.141 45.372C145.689 45.372 145.299 45.2652 144.972 45.0515C144.645 44.8379 144.394 44.5436 144.218 44.1686C144.042 43.7937 143.954 43.3653 143.954 42.8836C143.954 42.3934 144.044 41.9609 144.224 41.5859C144.407 41.2089 144.66 40.9146 144.985 40.703C145.312 40.4894 145.693 40.3826 146.129 40.3826C146.468 40.3826 146.774 40.4454 147.046 40.5711C147.318 40.6968 147.541 40.8727 147.715 41.0989C147.889 41.3252 147.997 41.5891 148.039 41.8907H147.297C147.241 41.6708 147.115 41.476 146.92 41.3063C146.728 41.1345 146.468 41.0487 146.141 41.0487C145.852 41.0487 145.599 41.1241 145.381 41.2749C145.165 41.4236 144.996 41.6341 144.875 41.9064C144.755 42.1766 144.696 42.494 144.696 42.8584C144.696 43.2313 144.754 43.556 144.872 43.8325C144.991 44.109 145.159 44.3237 145.374 44.4766C145.592 44.6295 145.848 44.7059 146.141 44.7059C146.334 44.7059 146.509 44.6724 146.666 44.6054C146.823 44.5384 146.956 44.442 147.065 44.3163C147.174 44.1906 147.251 44.0398 147.297 43.8639H148.039C147.997 44.1487 147.893 44.4053 147.728 44.6337C147.564 44.8599 147.348 45.04 147.077 45.1741C146.809 45.306 146.497 45.372 146.141 45.372ZM149.123 45.2715V40.4454H149.839V41.1743H149.889C149.977 40.9355 150.137 40.7418 150.367 40.5931C150.597 40.4444 150.857 40.37 151.146 40.37C151.201 40.37 151.269 40.371 151.35 40.3731C151.432 40.3752 151.494 40.3784 151.536 40.3826V41.1366C151.511 41.1304 151.453 41.1209 151.363 41.1084C151.275 41.0937 151.182 41.0864 151.083 41.0864C150.849 41.0864 150.639 41.1356 150.455 41.234C150.273 41.3304 150.128 41.4644 150.021 41.6362C149.917 41.8059 149.864 41.9996 149.864 42.2175V45.2715H149.123ZM154.291 45.372C153.826 45.372 153.425 45.2694 153.088 45.0641C152.753 44.8567 152.494 44.5677 152.312 44.1969C152.132 43.8241 152.042 43.3905 152.042 42.8961C152.042 42.4018 152.132 41.9661 152.312 41.5891C152.494 41.2099 152.748 40.9146 153.072 40.703C153.399 40.4894 153.78 40.3826 154.216 40.3826C154.467 40.3826 154.716 40.4245 154.961 40.5082C155.206 40.592 155.429 40.7282 155.63 40.9167C155.831 41.1031 155.991 41.3503 156.111 41.6582C156.23 41.9661 156.29 42.3453 156.29 42.7956V43.1098H152.57V42.4688H155.536C155.536 42.1965 155.481 41.9536 155.372 41.7399C155.265 41.5262 155.112 41.3576 154.913 41.234C154.717 41.1105 154.484 41.0487 154.216 41.0487C153.921 41.0487 153.665 41.122 153.449 41.2686C153.236 41.4131 153.071 41.6016 152.956 41.8342C152.841 42.0667 152.783 42.3159 152.783 42.5819V43.0093C152.783 43.3737 152.846 43.6827 152.972 43.9361C153.1 44.1875 153.277 44.3792 153.503 44.5111C153.729 44.641 153.992 44.7059 154.291 44.7059C154.486 44.7059 154.662 44.6787 154.819 44.6242C154.978 44.5677 155.116 44.4839 155.231 44.3729C155.346 44.2598 155.435 44.1194 155.498 43.9519L156.214 44.1529C156.139 44.3959 156.012 44.6096 155.834 44.7939C155.656 44.9761 155.436 45.1186 155.174 45.2212C154.912 45.3218 154.618 45.372 154.291 45.372ZM158.838 45.3846C158.532 45.3846 158.254 45.327 158.005 45.2118C157.756 45.0945 157.558 44.9259 157.411 44.7059C157.265 44.4839 157.191 44.2158 157.191 43.9016C157.191 43.6251 157.246 43.401 157.355 43.2292C157.464 43.0553 157.609 42.9192 157.792 42.8207C157.974 42.7223 158.175 42.649 158.395 42.6008C158.617 42.5505 158.84 42.5107 159.064 42.4814C159.357 42.4437 159.595 42.4154 159.777 42.3966C159.962 42.3756 160.096 42.3411 160.179 42.2929C160.265 42.2447 160.308 42.1609 160.308 42.0415V42.0164C160.308 41.7064 160.223 41.4655 160.054 41.2937C159.886 41.122 159.632 41.0361 159.29 41.0361C158.936 41.0361 158.659 41.1136 158.458 41.2686C158.257 41.4236 158.115 41.5891 158.033 41.765L157.33 41.5137C157.455 41.2204 157.623 40.9921 157.832 40.8287C158.044 40.6632 158.274 40.548 158.524 40.4831C158.775 40.4161 159.022 40.3826 159.265 40.3826C159.42 40.3826 159.598 40.4014 159.799 40.4391C160.002 40.4747 160.198 40.5491 160.387 40.6622C160.577 40.7753 160.736 40.946 160.861 41.1743C160.987 41.4027 161.05 41.7085 161.05 42.0918V45.2715H160.308V44.618H160.271C160.22 44.7227 160.137 44.8347 160.019 44.9541C159.902 45.0735 159.746 45.1751 159.551 45.2589C159.356 45.3427 159.119 45.3846 158.838 45.3846ZM158.951 44.7185C159.244 44.7185 159.491 44.6609 159.692 44.5457C159.896 44.4305 160.049 44.2818 160.151 44.0995C160.256 43.9173 160.308 43.7256 160.308 43.5245V42.8459C160.277 42.8836 160.208 42.9181 160.101 42.9496C159.996 42.9789 159.875 43.0051 159.736 43.0281C159.6 43.0491 159.467 43.0679 159.337 43.0847C159.21 43.0993 159.106 43.1119 159.026 43.1224C158.834 43.1475 158.653 43.1883 158.486 43.2449C158.32 43.2994 158.186 43.3821 158.084 43.4931C157.983 43.602 157.933 43.7508 157.933 43.9393C157.933 44.1969 158.028 44.3917 158.219 44.5237C158.412 44.6536 158.656 44.7185 158.951 44.7185ZM164.502 40.4454V41.0738H162.001V40.4454H164.502ZM162.73 39.2891H163.471V43.889C163.471 44.0985 163.502 44.2556 163.563 44.3603C163.625 44.4629 163.705 44.5321 163.801 44.5677C163.9 44.6012 164.004 44.618 164.112 44.618C164.194 44.618 164.261 44.6138 164.314 44.6054C164.366 44.5949 164.408 44.5865 164.439 44.5802L164.59 45.2463C164.54 45.2652 164.47 45.2841 164.379 45.3029C164.289 45.3239 164.175 45.3343 164.037 45.3343C163.828 45.3343 163.622 45.2893 163.421 45.1992C163.222 45.1091 163.057 44.9719 162.925 44.7876C162.795 44.6033 162.73 44.3708 162.73 44.0901V39.2891ZM167.526 45.372C167.091 45.372 166.708 45.2683 166.379 45.061C166.053 44.8536 165.797 44.5635 165.613 44.1906C165.43 43.8178 165.339 43.3821 165.339 42.8836C165.339 42.3809 165.43 41.942 165.613 41.5671C165.797 41.1921 166.053 40.901 166.379 40.6936C166.708 40.4862 167.091 40.3826 167.526 40.3826C167.962 40.3826 168.343 40.4862 168.67 40.6936C168.999 40.901 169.254 41.1921 169.437 41.5671C169.621 41.942 169.713 42.3809 169.713 42.8836C169.713 43.3821 169.621 43.8178 169.437 44.1906C169.254 44.5635 168.999 44.8536 168.67 45.061C168.343 45.2683 167.962 45.372 167.526 45.372ZM167.526 44.7059C167.857 44.7059 168.129 44.6211 168.343 44.4514C168.557 44.2818 168.715 44.0587 168.818 43.7822C168.92 43.5057 168.972 43.2062 168.972 42.8836C168.972 42.561 168.92 42.2604 168.818 41.9818C168.715 41.7032 168.557 41.4781 168.343 41.3063C168.129 41.1345 167.857 41.0487 167.526 41.0487C167.195 41.0487 166.923 41.1345 166.709 41.3063C166.496 41.4781 166.337 41.7032 166.235 41.9818C166.132 42.2604 166.081 42.561 166.081 42.8836C166.081 43.2062 166.132 43.5057 166.235 43.7822C166.337 44.0587 166.496 44.2818 166.709 44.4514C166.923 44.6211 167.195 44.7059 167.526 44.7059ZM170.845 45.2715V40.4454H171.561V41.1743H171.612C171.7 40.9355 171.859 40.7418 172.089 40.5931C172.32 40.4444 172.579 40.37 172.868 40.37C172.923 40.37 172.991 40.371 173.073 40.3731C173.154 40.3752 173.216 40.3784 173.258 40.3826V41.1366C173.233 41.1304 173.175 41.1209 173.085 41.1084C172.997 41.0937 172.904 41.0864 172.806 41.0864C172.571 41.0864 172.361 41.1356 172.177 41.234C171.995 41.3304 171.85 41.4644 171.744 41.6362C171.639 41.8059 171.586 41.9996 171.586 42.2175V45.2715H170.845ZM177.555 41.5262L176.889 41.7148C176.847 41.6037 176.786 41.4959 176.704 41.3911C176.624 41.2843 176.515 41.1963 176.377 41.1272C176.239 41.0581 176.062 41.0235 175.846 41.0235C175.551 41.0235 175.305 41.0916 175.108 41.2278C174.913 41.3618 174.816 41.5325 174.816 41.7399C174.816 41.9242 174.883 42.0698 175.017 42.1766C175.151 42.2835 175.36 42.3725 175.645 42.4437L176.361 42.6197C176.793 42.7244 177.114 42.8846 177.326 43.1004C177.538 43.314 177.643 43.5895 177.643 43.9267C177.643 44.2032 177.564 44.4504 177.405 44.6682C177.247 44.8861 177.028 45.0578 176.745 45.1835C176.462 45.3092 176.133 45.372 175.758 45.372C175.266 45.372 174.859 45.2652 174.536 45.0515C174.213 44.8379 174.009 44.5258 173.923 44.1152L174.627 43.9393C174.694 44.199 174.821 44.3938 175.007 44.5237C175.196 44.6536 175.442 44.7185 175.746 44.7185C176.091 44.7185 176.366 44.6452 176.569 44.4986C176.774 44.3498 176.877 44.1718 176.877 43.9644C176.877 43.7968 176.818 43.6565 176.701 43.5434C176.583 43.4282 176.403 43.3423 176.16 43.2858L175.356 43.0972C174.914 42.9925 174.589 42.8302 174.382 42.6102C174.177 42.3882 174.074 42.1106 174.074 41.7776C174.074 41.5053 174.151 41.2644 174.303 41.0549C174.458 40.8455 174.669 40.681 174.935 40.5617C175.203 40.4423 175.507 40.3826 175.846 40.3826C176.324 40.3826 176.699 40.4873 176.971 40.6968C177.245 40.9062 177.44 41.1827 177.555 41.5262Z" fill="#231F20"/>
</svg>
